<svg width="24" height="24" viewBox="0 0 24 24" fill="none" xmlns="http://www.w3.org/2000/svg">
<path d="M24 14V10H19.714C19.526 9.274 19.238 8.592 18.866 7.962L21.898 4.93L19.07 2.1L16.04 5.132C15.406 4.76 14.726 4.472 14 4.284V0H10V4.284C9.274 4.474 8.594 4.76 7.96 5.134L4.93 2.1L2.102 4.928L5.132 7.96C4.762 8.592 4.472 9.272 4.286 10H0V14H4.286C4.474 14.726 4.762 15.408 5.134 16.038L2.102 19.072L4.93 21.9L7.962 18.868C8.594 19.24 9.274 19.528 10.002 19.718V24H14.002V19.716C14.728 19.526 15.408 19.238 16.042 18.866L19.074 21.898L21.902 19.07L18.87 16.036C19.242 15.406 19.53 14.726 19.718 13.998H24V14ZM12 16C9.792 16 8 14.206 8 12C8 9.796 9.792 8 12 8C14.208 8 16 9.796 16 12C16 14.204 14.208 16 12 16Z" fill="#585858"/>
</svg>
